# xmcd CD database file
#
# Track frame offsets:
#	150
#	20512
#	44131
#	53492
#	79748
#	93010
#	97011
#	132882
#	143554
#	177526
#	186431
#	195569
#	217074
#	227356
#	233550
#	239870
#	274153
#
# Disc length: 3771 seconds
#
# Revision: 0
# Processed by: cddbd v1.5.2PL0 Copyright (c) Steve Scherf et al.
# Submitted via: CDex 1.70beta2
#
DISCID=f00eb911
DTITLE=Andreas Wahl - Experimentle Band
DYEAR=2004
DGENRE=Jazz
TTITLE0=Live und in Farbe
TTITLE1=Guten Tag, ich bin der Täuber
TTITLE2=Ein Kleines und eins für Draußen
TTITLE3=Ein Tag ohne Hotzenplotz
TTITLE4=Kinderlied
TTITLE5=Blaue Wunder
TTITLE6=Der kleine Wassermann
TTITLE7=Natriumhydrogencarbonat
TTITLE8=Eins, Zwei, Drei
TTITLE9=Kaltes Morgen
TTITLE10=Phantoms Schmerz
TTITLE11=Hans im Glück
TTITLE12=Turbulenzen
TTITLE13=Der fleißige schwäbische Postbeamte
TTITLE14=Gute Nachrichten
TTITLE15=Dunkelblau sieht gut aus
TTITLE16=Ein Lied zum Abschied
EXTD=YEAR: 2004
EXTT0=
EXTT1=
EXTT2=
EXTT3=
EXTT4=
EXTT5=
EXTT6=
EXTT7=
EXTT8=
EXTT9=
EXTT10=
EXTT11=
EXTT12=
EXTT13=
EXTT14=
EXTT15=
EXTT16=
PLAYORDER=
